<mxfile host="app.diagrams.net" modified="2022-09-09T08:22:36.476Z" agent="5.0 (Windows NT 10.0; Win64; x64) AppleWebKit/537.36 (KHTML, like Gecko) Chrome/104.0.0.0 Safari/537.36" etag="yyYcjnCL2hh-u8QXPj1X" version="20.3.0" type="github">
  <diagram id="fmr1JvFrboBxXgLPLd9U" name="第 1 页">
    <mxGraphModel dx="1360" dy="802" grid="1" gridSize="10" guides="1" tooltips="1" connect="1" arrows="1" fold="1" page="1" pageScale="1" pageWidth="827" pageHeight="1169" math="0" shadow="0">
      <root>
        <mxCell id="0" />
        <mxCell id="1" parent="0" />
        <mxCell id="Zw424GaXXL6_fNl9BFak-2" value="JVM" style="rounded=0;whiteSpace=wrap;html=1;" vertex="1" parent="1">
          <mxGeometry x="110" y="170" width="180" height="130" as="geometry" />
        </mxCell>
        <mxCell id="Zw424GaXXL6_fNl9BFak-3" value="JVMTI" style="rounded=0;whiteSpace=wrap;html=1;" vertex="1" parent="1">
          <mxGeometry x="230" y="170" width="70" height="35" as="geometry" />
        </mxCell>
        <mxCell id="Zw424GaXXL6_fNl9BFak-8" value="class" style="ellipse;whiteSpace=wrap;html=1;aspect=fixed;fontStyle=1" vertex="1" parent="1">
          <mxGeometry x="120" y="220" width="30" height="30" as="geometry" />
        </mxCell>
        <mxCell id="Zw424GaXXL6_fNl9BFak-9" value="class" style="ellipse;whiteSpace=wrap;html=1;aspect=fixed;fontStyle=1" vertex="1" parent="1">
          <mxGeometry x="220" y="250" width="30" height="30" as="geometry" />
        </mxCell>
        <mxCell id="Zw424GaXXL6_fNl9BFak-10" value="class" style="ellipse;whiteSpace=wrap;html=1;aspect=fixed;fontStyle=1" vertex="1" parent="1">
          <mxGeometry x="150" y="250" width="30" height="30" as="geometry" />
        </mxCell>
        <mxCell id="Zw424GaXXL6_fNl9BFak-11" value="class" style="ellipse;whiteSpace=wrap;html=1;aspect=fixed;fontStyle=1" vertex="1" parent="1">
          <mxGeometry x="150" y="197.5" width="30" height="30" as="geometry" />
        </mxCell>
        <mxCell id="Zw424GaXXL6_fNl9BFak-13" value="&lt;b&gt;agent&lt;/b&gt;" style="rounded=0;whiteSpace=wrap;html=1;" vertex="1" parent="1">
          <mxGeometry x="410" y="170" width="180" height="130" as="geometry" />
        </mxCell>
        <mxCell id="Zw424GaXXL6_fNl9BFak-14" value="Java Instrumentation API" style="rounded=0;whiteSpace=wrap;html=1;" vertex="1" parent="1">
          <mxGeometry x="410" y="170" width="160" height="35" as="geometry" />
        </mxCell>
      </root>
    </mxGraphModel>
  </diagram>
</mxfile>
